<svg preserveAspectRatio="none" width="100%" height="100%" overflow="visible" style="display: block;" viewBox="0 0 24 24" fill="none" xmlns="http://www.w3.org/2000/svg">
<g id="MetaMask">
<path id="Vector" d="M20.6484 2.67413L13.1531 8.24099L14.5391 4.95662L20.6484 2.67413Z" fill="var(--fill-0, #E2761B)" stroke="var(--stroke-0, #E2761B)" style="fill:#E2761B;fill:color(display-p3 0.8863 0.4627 0.1059);fill-opacity:1;stroke:#E2761B;stroke:color(display-p3 0.8863 0.4627 0.1059);stroke-opacity:1;" stroke-width="0.0753295" stroke-linecap="round" stroke-linejoin="round"/>
<path id="Vector_2" d="M3.34492 2.67413L10.7799 8.29372L9.46167 4.95662L3.34492 2.67413ZM17.9513 15.5781L15.9551 18.6365L20.2263 19.8116L21.4541 15.6459L17.9513 15.5781ZM2.55396 15.6459L3.77429 19.8116L8.04548 18.6365L6.04925 15.5781L2.55396 15.6459Z" fill="var(--fill-0, #E4761B)" stroke="var(--stroke-0, #E4761B)" style="fill:#E4761B;fill:color(display-p3 0.8941 0.4627 0.1059);fill-opacity:1;stroke:#E4761B;stroke:color(display-p3 0.8941 0.4627 0.1059);stroke-opacity:1;" stroke-width="0.0753295" stroke-linecap="round" stroke-linejoin="round"/>
<path id="Vector_3" d="M7.80421 10.4105L6.614 12.2109L10.8551 12.3992L10.7044 7.84178L7.80421 10.4105ZM16.1884 10.4105L13.2505 7.78905L13.1526 12.3992L17.3861 12.2109L16.1884 10.4105ZM8.04526 18.6365L10.5914 17.3936L8.39178 15.6761L8.04526 18.6365ZM13.4012 17.3936L15.9549 18.6365L15.6008 15.6761L13.4012 17.3936Z" fill="var(--fill-0, #E4761B)" stroke="var(--stroke-0, #E4761B)" style="fill:#E4761B;fill:color(display-p3 0.8941 0.4627 0.1059);fill-opacity:1;stroke:#E4761B;stroke:color(display-p3 0.8941 0.4627 0.1059);stroke-opacity:1;" stroke-width="0.0753295" stroke-linecap="round" stroke-linejoin="round"/>
<path id="Vector_4" d="M15.9553 18.6364L13.4016 17.3935L13.605 19.0583L13.5824 19.7588L15.9553 18.6364ZM8.04565 18.6364L10.4185 19.7588L10.4035 19.0583L10.5918 17.3935L8.04565 18.6364Z" fill="var(--fill-0, #D7C1B3)" stroke="var(--stroke-0, #D7C1B3)" style="fill:#D7C1B3;fill:color(display-p3 0.8431 0.7569 0.7020);fill-opacity:1;stroke:#D7C1B3;stroke:color(display-p3 0.8431 0.7569 0.7020);stroke-opacity:1;" stroke-width="0.0753295" stroke-linecap="round" stroke-linejoin="round"/>
<path id="Vector_5" d="M10.4561 14.5762L8.33179 13.9509L9.83085 13.2654L10.4561 14.5762ZM13.5371 14.5762L14.1623 13.2654L15.6689 13.9509L13.5371 14.5762Z" fill="var(--fill-0, #233447)" stroke="var(--stroke-0, #233447)" style="fill:#233447;fill:color(display-p3 0.1373 0.2039 0.2784);fill-opacity:1;stroke:#233447;stroke:color(display-p3 0.1373 0.2039 0.2784);stroke-opacity:1;" stroke-width="0.0753295" stroke-linecap="round" stroke-linejoin="round"/>
<path id="Vector_6" d="M8.04526 18.6365L8.40684 15.5781L6.04903 15.6459L8.04526 18.6365ZM15.5933 15.5781L15.9549 18.6365L17.9511 15.6459L15.5933 15.5781ZM17.3861 12.2109L13.1526 12.3992L13.5443 14.5762L14.1696 13.2655L15.6761 13.951L17.3861 12.2109ZM8.33151 13.951L9.83811 13.2655L10.4558 14.5762L10.8551 12.3992L6.614 12.2109L8.33151 13.951Z" fill="var(--fill-0, #CD6116)" stroke="var(--stroke-0, #CD6116)" style="fill:#CD6116;fill:color(display-p3 0.8039 0.3804 0.0863);fill-opacity:1;stroke:#CD6116;stroke:color(display-p3 0.8039 0.3804 0.0863);stroke-opacity:1;" stroke-width="0.0753295" stroke-linecap="round" stroke-linejoin="round"/>
<path id="Vector_7" d="M6.614 12.2109L8.39178 15.6761L8.33151 13.951L6.614 12.2109ZM15.6761 13.951L15.6008 15.6761L17.3861 12.2109L15.6761 13.951ZM10.8551 12.3992L10.4558 14.5762L10.953 17.145L11.066 13.7627L10.8551 12.3992ZM13.1526 12.3992L12.9492 13.7552L13.0396 17.145L13.5443 14.5762L13.1526 12.3992Z" fill="var(--fill-0, #E4751F)" stroke="var(--stroke-0, #E4751F)" style="fill:#E4751F;fill:color(display-p3 0.8941 0.4588 0.1216);fill-opacity:1;stroke:#E4751F;stroke:color(display-p3 0.8941 0.4588 0.1216);stroke-opacity:1;" stroke-width="0.0753295" stroke-linecap="round" stroke-linejoin="round"/>
<path id="Vector_8" d="M13.5446 14.5762L13.0399 17.1449L13.4015 17.3935L15.6011 15.676L15.6764 13.9509L13.5446 14.5762ZM8.33179 13.9509L8.39205 15.676L10.5917 17.3935L10.9533 17.1449L10.4561 14.5762L8.33179 13.9509Z" fill="var(--fill-0, #F6851B)" stroke="var(--stroke-0, #F6851B)" style="fill:#F6851B;fill:color(display-p3 0.9647 0.5216 0.1059);fill-opacity:1;stroke:#F6851B;stroke:color(display-p3 0.9647 0.5216 0.1059);stroke-opacity:1;" stroke-width="0.0753295" stroke-linecap="round" stroke-linejoin="round"/>
<path id="Vector_9" d="M13.5824 19.7589L13.605 19.0583L13.4167 18.8926H10.5767L10.4035 19.0583L10.4185 19.7589L8.04565 18.6365L8.87428 19.3144L10.5541 20.482H13.4392L15.1266 19.3144L15.9553 18.6365L13.5824 19.7589Z" fill="var(--fill-0, #C0AD9E)" stroke="var(--stroke-0, #C0AD9E)" style="fill:#C0AD9E;fill:color(display-p3 0.7529 0.6784 0.6196);fill-opacity:1;stroke:#C0AD9E;stroke:color(display-p3 0.7529 0.6784 0.6196);stroke-opacity:1;" stroke-width="0.0753295" stroke-linecap="round" stroke-linejoin="round"/>
<path id="Vector_10" d="M13.4017 17.3935L13.0401 17.1449H10.9535L10.5919 17.3935L10.4036 19.0583L10.5768 18.8925H13.4167L13.6051 19.0583L13.4017 17.3935Z" fill="var(--fill-0, #161616)" stroke="var(--stroke-0, #161616)" style="fill:#161616;fill:color(display-p3 0.0863 0.0863 0.0863);fill-opacity:1;stroke:#161616;stroke:color(display-p3 0.0863 0.0863 0.0863);stroke-opacity:1;" stroke-width="0.0753295" stroke-linecap="round" stroke-linejoin="round"/>
<path id="Vector_11" d="M20.9643 8.60261L21.6046 5.52916L20.6479 2.67417L13.4012 8.0527L16.1884 10.4105L20.1281 11.5631L21.0019 10.5461L20.6253 10.2749L21.2279 9.72502L20.7609 9.36344L21.3635 8.90393L20.9643 8.60261ZM2.39555 5.52916L3.03585 8.60261L2.62907 8.90393L3.2317 9.36344L2.77219 9.72502L3.37483 10.2749L2.99818 10.5461L3.86447 11.5631L7.80421 10.4105L10.5914 8.0527L3.3447 2.67417L2.39555 5.52916Z" fill="var(--fill-0, #763D16)" stroke="var(--stroke-0, #763D16)" style="fill:#763D16;fill:color(display-p3 0.4627 0.2392 0.0863);fill-opacity:1;stroke:#763D16;stroke:color(display-p3 0.4627 0.2392 0.0863);stroke-opacity:1;" stroke-width="0.0753295" stroke-linecap="round" stroke-linejoin="round"/>
<path id="Vector_12" d="M20.1283 11.563L16.1886 10.4105L17.3863 12.2108L15.601 15.676L17.9513 15.6459H21.4541L20.1283 11.563ZM7.80442 10.4105L3.86469 11.563L2.55396 15.6459H6.04925L8.392 15.676L6.61422 12.2108L7.80442 10.4105ZM13.1528 12.3992L13.4014 8.05265L14.5464 4.9566H9.46167L10.5916 8.05265L10.8553 12.3992L10.9457 13.7702L10.9532 17.1449H13.0398L13.0549 13.7702L13.1528 12.3992Z" fill="var(--fill-0, #F6851B)" stroke="var(--stroke-0, #F6851B)" style="fill:#F6851B;fill:color(display-p3 0.9647 0.5216 0.1059);fill-opacity:1;stroke:#F6851B;stroke:color(display-p3 0.9647 0.5216 0.1059);stroke-opacity:1;" stroke-width="0.0753295" stroke-linecap="round" stroke-linejoin="round"/>
</g>
</svg>
