<svg preserveAspectRatio="none" width="100%" height="100%" overflow="visible" style="display: block;" viewBox="0 0 24 24" fill="none" xmlns="http://www.w3.org/2000/svg">
<g id="Twitter">
<path id="Vector" d="M21.4788 6.96356C21.4934 7.17356 21.4934 7.38356 21.4934 7.5955C21.4934 14.0532 16.5772 21.501 7.58788 21.501V21.4971C4.93239 21.501 2.33207 20.7403 0.0965852 19.3061C0.482714 19.3526 0.870779 19.3758 1.25981 19.3768C3.46046 19.3787 5.5982 18.6403 7.32949 17.2807C5.2382 17.241 3.40433 15.8774 2.76368 13.8868C3.49626 14.0281 4.2511 13.999 4.97013 13.8026C2.69013 13.342 1.04981 11.3387 1.04981 9.01227V8.95034C1.72917 9.32873 2.48981 9.53873 3.26788 9.56195C1.12046 8.12679 0.458521 5.27002 1.75529 3.03647C4.23658 6.08969 7.89755 7.94582 11.8276 8.14227C11.4337 6.44485 11.9717 4.66614 13.2414 3.47292C15.2098 1.6226 18.3056 1.71744 20.1559 3.68485C21.2505 3.46905 22.2995 3.06744 23.2595 2.4984C22.8946 3.62969 22.1311 4.59066 21.1111 5.20131C22.0798 5.08711 23.0263 4.82776 23.9176 4.43195C23.2614 5.41518 22.435 6.27163 21.4788 6.96356Z" fill="var(--fill-0, #1D9BF0)" style="fill:#1D9BF0;fill:color(display-p3 0.1137 0.6078 0.9412);fill-opacity:1;"/>
</g>
</svg>
